# xmcd
#
# Track frame offsets: 
#        150
#        6398
#        17582
#        35300
#        46240
#        58298
#        76412
#        86317
#        97245
#        106610
#
# Disc length: 1695 seconds
#
# Revision: 0
# Processed by: cddbd v1.5.2PL0 Copyright (c) Steve Scherf et al.
# Submitted via: ExactAudioCopy v0.95b3
#
DISCID=70069d0a
DTITLE=Iron Butterfly  - Heavy (1967)(2006 Japan Vinyl Replica Rem.)
DYEAR=1900
DGENRE=
TTITLE0=Possession
TTITLE1=Unconscious Power
TTITLE2=Get Out Of My Life, Woman
TTITLE3=Gentle As It May Seem
TTITLE4=You Can't Win
TTITLE5=So-Lo
TTITLE6=Look For The Sun
TTITLE7=Fields Of Sun
TTITLE8=Stamped Ideas
TTITLE9=Iron Butterfly Theme
EXTD=
EXTT0=
EXTT1=
EXTT2=
EXTT3=
EXTT4=
EXTT5=
EXTT6=
EXTT7=
EXTT8=
EXTT9=
PLAYORDER=
